<?xml version="1.0" encoding="utf-8"?>
<svg xmlns="http://www.w3.org/2000/svg" style="margin: auto; background: none; display: block; shape-rendering: auto;" width="280" height="250" preserveAspectRatio="xMidYMid">
<style type="text/css">
  text {
    text-anchor: middle; font-size: 76px; opacity: 0;
  }
</style>
<g style="transform-origin: 140px 125px; transform: scale(0.95);">
<g transform="translate(140,125)">
  <g transform="translate(0,0)"><g class="path" style="transform: scale(0.91); transform-origin: -106.52px 1.6048px; animation: 0.826446s linear -0.477273s infinite normal forwards running breath-4ffa28a3-a551-4c7a-85bb-f6929233a7c3;"><path d="M13.52 5.76L13.52 5.76Q10.96 3.36 8.64 2.12L8.64 2.12L8.64 2.12Q6.32 0.88 3 0.88L3 0.88L3 0.88Q-0.32 0.88-2.28 2.12L-2.28 2.12L-2.28 2.12Q-4.24 3.36-4.24 5.64L-4.24 5.64L-4.24 5.64Q-4.24 7.92-1.64 9.32L-1.64 9.32L-1.64 9.32Q0.96 10.72 4.48 10.72L4.48 10.72L4.48 10.72Q8 10.72 10.72 10.08L10.72 10.08L10.72 10.08Q12.32 8.64 13.52 5.76L13.52 5.76zM27.04 13.88L27.04 13.88L27.04 13.88Q28.40 14.32 29.92 14.48L29.92 14.48L29.92 14.48Q31.44 14.64 33.96 14.64L33.96 14.64L33.96 14.64Q36.48 14.64 39.12 13.28L39.12 13.28L39.12 13.28Q41.76 11.92 43.32 10.12L43.32 10.12L43.32 10.12Q44.88 8.32 46.08 6.08L46.08 6.08L46.08 6.08Q47.60 3.44 48.32 0.80L48.32 0.80L50.24 1.44L50.24 1.44Q48.16 8.24 43.64 12.24L43.64 12.24L43.64 12.24Q39.12 16.24 33.12 16.24L33.12 16.24L33.12 16.24Q28.40 16.24 26.60 15.56L26.60 15.56L26.60 15.56Q24.80 14.88 24 14.68L24 14.68L24 14.68Q23.20 14.48 21.88 13.48L21.88 13.48L21.88 13.48Q20.56 12.48 20.32 12.32L20.32 12.32L20.32 12.32Q19.68 11.84 17.04 9.20L17.04 9.20L17.04 9.20Q11.92 12.24 6 12.24L6 12.24L6 12.24Q0.08 12.24-3.04 10.36L-3.04 10.36L-3.04 10.36Q-6.16 8.48-6.16 5.64L-6.16 5.64L-6.16 5.64Q-6.16 2.80-3.88 1.08L-3.88 1.08L-3.88 1.08Q-1.60-0.64 2.96-0.64L2.96-0.64L2.96-0.64Q9.20-0.64 14.16 4L14.16 4L14.16 4Q15.12 1.04 15.76-2.56L15.76-2.56L21.12-33.52L21.12-33.52Q23.04-45.52 29.44-49.68L29.44-49.68L29.44-49.68Q35.04-53.28 42.16-53.28L42.16-53.28L42.16-53.28Q49.28-53.28 53.80-49.20L53.80-49.20L53.80-49.20Q58.32-45.12 58.32-36.32L58.32-36.32L56.40-36.32L56.40-36.32Q56.40-43.44 53-47.16L53-47.16L53-47.16Q49.60-50.88 44.40-50.88L44.40-50.88L44.40-50.88Q34.88-50.88 33.12-39.04L33.12-39.04L33.12-39.04Q33.12-37.76 31.08-25.88L31.08-25.88L31.08-25.88Q29.04-14 27.44-6.24L27.44-6.24L27.44-6.24Q25.76 3.12 18.48 8.24L18.48 8.24L18.48 8.24Q22.80 12.56 24.88 13.20L24.88 13.20L24.88 13.20Q25.68 13.44 27.04 13.88" fill="#bd2824" stroke="none" stroke-width="none" transform="translate(-132.60001182556152,20.12480155467987)" style="fill: rgb(189, 40, 36);"></path></g><g class="path" style="transform: scale(0.91); transform-origin: -63.4px 4.9248px; animation: 0.826446s linear -0.409091s infinite normal forwards running breath-4ffa28a3-a551-4c7a-85bb-f6929233a7c3;"><path d="M66.08 0.72L66.08 0.72Q59.92 0.72 56.72-2.36L56.72-2.36L56.72-2.36Q53.52-5.44 53.52-10.12L53.52-10.12L53.52-10.12Q53.52-14.80 54.36-18.12L54.36-18.12L54.36-18.12Q55.20-21.44 57.12-24.52L57.12-24.52L57.12-24.52Q59.04-27.60 62.92-29.36L62.92-29.36L62.92-29.36Q66.80-31.12 72.60-31.12L72.60-31.12L72.60-31.12Q78.40-31.12 81.64-28.04L81.64-28.04L81.64-28.04Q84.88-24.96 84.88-19.60L84.88-19.60L84.88-19.60Q84.88-10.48 80.04-4.88L80.04-4.88L80.04-4.88Q75.20 0.72 66.08 0.72L66.08 0.72zM62.56-7.52L62.56-7.52L62.56-7.52Q62.56-1.12 66.28-1.12L66.28-1.12L66.28-1.12Q70-1.12 72.92-7.56L72.92-7.56L72.92-7.56Q75.84-14 75.84-22.88L75.84-22.88L75.84-22.88Q75.84-29.60 72.20-29.60L72.20-29.60L72.20-29.60Q68.56-29.60 65.56-23.48L65.56-23.48L65.56-23.48Q62.56-17.36 62.56-7.52" fill="#bd2824" stroke="none" stroke-width="none" transform="translate(-132.60001182556152,20.12480155467987)" style="fill: rgb(23, 37, 40);"></path></g><g class="path" style="transform: scale(0.91); transform-origin: -26.52px 4.9248px; animation: 0.826446s linear -0.340909s infinite normal forwards running breath-4ffa28a3-a551-4c7a-85bb-f6929233a7c3;"><path d="M117.04 0.72L117.04 0.72L117.04 0.72Q110 0.72 109.36-5.44L109.36-5.44L109.36-5.44Q105.84 0.72 100.48 0.72L100.48 0.72L100.48 0.72Q95.12 0.72 91.96-2.52L91.96-2.52L91.96-2.52Q88.80-5.76 88.80-11.60L88.80-11.60L88.80-11.60Q88.80-20.72 93.28-25.92L93.28-25.92L93.28-25.92Q97.76-31.12 104.88-31.12L104.88-31.12L104.88-31.12Q110.72-31.12 112.64-25.60L112.64-25.60L112.64-25.60Q113.04-28 113.52-30.40L113.52-30.40L113.52-30.40Q119.44-30.40 122.32-30.88L122.32-30.88L123.36-31.12L117.84-0.88L117.84-0.88Q120.24-1.12 121.84-3.12L121.84-3.12L123.04-2.16L123.04-2.16Q120.64 0.72 117.04 0.72zM97.84-7.52L97.84-7.52Q97.84-3.92 98.76-2.52L98.76-2.52L98.76-2.52Q99.68-1.12 101.60-1.12L101.60-1.12L101.60-1.12Q103.52-1.12 105.52-3.20L105.52-3.20L105.52-3.20Q108.16-5.92 109.76-10.08L109.76-10.08L109.76-10.08Q110-11.12 110.68-15.08L110.68-15.08L110.68-15.08Q111.36-19.04 111.84-21.60L111.84-21.60L111.84-21.60Q111.60-24.64 110.16-26.88L110.16-26.88L110.16-26.88Q108.72-29.12 106.56-29.12L106.56-29.12L106.56-29.12Q102.64-29.12 100.24-22.12L100.24-22.12L100.24-22.12Q97.84-15.12 97.84-7.52L97.84-7.52" fill="#bd2824" stroke="none" stroke-width="none" transform="translate(-132.60001182556152,20.12480155467987)" style="fill: rgb(148, 172, 182);"></path></g><g class="path" style="transform: scale(0.91); transform-origin: 13.04px -5.4352px; animation: 0.826446s linear -0.272727s infinite normal forwards running breath-4ffa28a3-a551-4c7a-85bb-f6929233a7c3;"><path d="M155.28 0.72L155.28 0.72L155.28 0.72Q148.24 0.72 147.60-5.28L147.60-5.28L147.60-5.28Q144.08 0.72 138.64 0.72L138.64 0.72L138.64 0.72Q133.20 0.72 130.32-2.36L130.32-2.36L130.32-2.36Q127.44-5.44 127.44-10.80L127.44-10.80L127.44-10.80Q127.44-20.24 131.92-25.68L131.92-25.68L131.92-25.68Q136.40-31.12 143.52-31.12L143.52-31.12L143.52-31.12Q147.60-31.12 149.84-28.64L149.84-28.64L149.84-28.64Q150.80-27.36 151.04-26.72L151.04-26.72L155.36-50.24L155.36-50.24Q152.96-50 151.36-48L151.36-48L150.16-48.96L150.16-48.96Q152.56-51.84 156.20-51.84L156.20-51.84L156.20-51.84Q159.84-51.84 161.84-50L161.84-50L161.84-50Q163.84-48.16 163.84-44.80L163.84-44.80L163.84-44.80Q163.84-44.16 163.68-42.72L163.68-42.72L163.68-42.72Q159.76-20.72 156.08-0.88L156.08-0.88L156.08-0.88Q158.48-1.12 160.08-3.12L160.08-3.12L161.28-2.16L161.28-2.16Q158.88 0.72 155.28 0.72zM136.48-7.52L136.48-7.52Q136.48-3.84 137.24-2.48L137.24-2.48L137.24-2.48Q138-1.12 139.64-1.12L139.64-1.12L139.64-1.12Q141.28-1.12 142.80-2.24L142.80-2.24L142.80-2.24Q144.32-3.36 145.36-5.12L145.36-5.12L145.36-5.12Q147.28-8.08 148.08-10.16L148.08-10.16L150.40-22.80L150.40-22.80Q150.24-25.36 148.72-27.48L148.72-27.48L148.72-27.48Q147.20-29.60 143.52-29.60L143.52-29.60L143.52-29.60Q140.96-29.60 138.72-22.08L138.72-22.08L138.72-22.08Q136.48-14.56 136.48-7.52L136.48-7.52" fill="#bd2824" stroke="none" stroke-width="none" transform="translate(-132.60001182556152,20.12480155467987)" style="fill: rgb(95, 132, 149);"></path></g><g class="path" style="transform: scale(0.91); transform-origin: 41.2px 4.9248px; animation: 0.826446s linear -0.204545s infinite normal forwards running breath-4ffa28a3-a551-4c7a-85bb-f6929233a7c3;"><path d="M180.48-2.16L180.48-2.16Q178.08 0.72 174.48 0.72L174.48 0.72L174.48 0.72Q170.88 0.72 168.84-1.12L168.84-1.12L168.84-1.12Q166.80-2.96 166.80-5.92L166.80-5.92L166.80-5.92Q166.80-6.96 168.08-14.64L168.08-14.64L170.72-28.96L167.36-28.96L167.52-30.40L170.96-30.40L170.96-30.40Q176.88-30.40 179.68-30.88L179.68-30.88L180.80-31.12L175.28-0.88L175.28-0.88Q177.68-1.12 179.28-3.12L179.28-3.12L180.48-2.16" fill="#bd2824" stroke="none" stroke-width="none" transform="translate(-132.60001182556152,20.12480155467987)" style="fill: rgb(50, 73, 92);"></path></g><g class="path" style="transform: scale(0.91); transform-origin: 44.96px -22.7952px; animation: 0.826446s linear -0.136364s infinite normal forwards running breath-4ffa28a3-a551-4c7a-85bb-f6929233a7c3;"><path d="M173.44-38.80L173.44-38.80L173.44-38.80Q171.76-40.48 171.76-42.88L171.76-42.88L171.76-42.88Q171.76-45.28 173.44-47L173.44-47L173.44-47Q175.12-48.72 177.52-48.72L177.52-48.72L177.52-48.72Q179.92-48.72 181.64-47L181.64-47L181.64-47Q183.36-45.28 183.36-42.88L183.36-42.88L183.36-42.88Q183.36-40.48 181.64-38.80L181.64-38.80L181.64-38.80Q179.92-37.12 177.52-37.12L177.52-37.12L177.52-37.12Q175.12-37.12 173.44-38.80" fill="#bd2824" stroke="none" stroke-width="none" transform="translate(-132.60001182556152,20.12480155467987)" style="fill: rgb(14, 21, 30);"></path></g><g class="path" style="transform: scale(0.91); transform-origin: 70.64px 4.9248px; animation: 0.826446s linear -0.0681818s infinite normal forwards running breath-4ffa28a3-a551-4c7a-85bb-f6929233a7c3;"><path d="M216-0.88L216-0.88L216-0.88Q217.92-0.88 220-3.12L220-3.12L221.20-2.16L221.20-2.16Q220.64-1.04 218.72-0.16L218.72-0.16L218.72-0.16Q216.80 0.72 214.48 0.72L214.48 0.72L214.48 0.72Q207.20 0.72 207.20-5.84L207.20-5.84L207.20-5.84Q207.20-8.64 208.64-15.84L208.64-15.84L208.64-15.84Q210.08-23.04 210.08-25.28L210.08-25.28L210.08-25.28Q210.08-28.72 206.80-28.72L206.80-28.72L206.80-28.72Q204.16-28.72 201.72-25.28L201.72-25.28L201.72-25.28Q199.28-21.84 197.68-15.84L197.68-15.84L194.96-0.88L194.96-0.88Q197.44-1.12 199.04-3.12L199.04-3.12L200.24-2.16L200.24-2.16Q197.84 0.72 194.24 0.72L194.24 0.72L194.24 0.72Q190.64 0.72 188.60-1.12L188.60-1.12L188.60-1.12Q186.56-2.96 186.56-5.92L186.56-5.92L186.56-5.92Q186.56-7.04 187.84-14.72L187.84-14.72L190.48-29.52L190.48-29.52Q188.08-29.28 186.48-27.28L186.48-27.28L185.28-28.24L185.28-28.24Q187.68-31.12 191.32-31.12L191.32-31.12L191.32-31.12Q194.96-31.12 196.96-29.28L196.96-29.28L196.96-29.28Q198.96-27.44 198.96-24.08L198.96-24.08L198.96-23.60L198.96-23.60Q202.24-31.12 209.20-31.12L209.20-31.12L209.20-31.12Q213.92-31.12 216.56-28.44L216.56-28.44L216.56-28.44Q219.20-25.76 219.20-21.04L219.20-21.04L219.20-21.04Q219.20-18.56 217.68-11.48L217.68-11.48L217.68-11.48Q216.16-4.40 216-0.88" fill="#bd2824" stroke="none" stroke-width="none" transform="translate(-132.60001182556152,20.12480155467987)" style="fill: rgb(189, 40, 36);"></path></g><g class="path" style="transform: scale(0.91); transform-origin: 108.52px 11.9248px; animation: 0.826446s linear 0s infinite normal forwards running breath-4ffa28a3-a551-4c7a-85bb-f6929233a7c3;"><path d="M251.28 8.72L251.28 8.72L251.28 8.72Q254.16 8.72 256.24 6.48L256.24 6.48L257.36 7.44L257.36 7.44Q255.44 10.16 251.28 10.16L251.28 10.16L251.28 10.16Q249.52 10.16 247.68 9.76L247.68 9.76L247.68 9.76Q242.24 14.72 233.76 14.72L233.76 14.72L233.76 14.72Q228.72 14.72 225.96 13L225.96 13L225.96 13Q223.20 11.28 223.20 8.52L223.20 8.52L223.20 8.52Q223.20 5.76 224.92 4.12L224.92 4.12L224.92 4.12Q226.64 2.48 231.04 2.48L231.04 2.48L231.04 2.48Q235.44 2.48 242.64 6.08L242.64 6.08L245.12-7.20L245.12-7.20Q241.52-0.56 235.84-0.56L235.84-0.56L235.84-0.56Q224.96-0.56 224.96-11.28L224.96-11.28L224.96-11.28Q224.96-20.24 229.48-25.68L229.48-25.68L229.48-25.68Q234-31.12 241.04-31.12L241.04-31.12L241.04-31.12Q245.12-31.12 247.36-28.64L247.36-28.64L247.36-28.64Q248-27.92 248.64-26.48L248.64-26.48L249.36-30.40L249.36-30.40Q255.28-30.40 258-30.88L258-30.88L259.04-31.12L253.76-1.60L253.76-1.60Q252.56 4.64 248.96 8.48L248.96 8.48L248.96 8.48Q250 8.72 251.28 8.72zM234-8.80L234-8.80Q234-5.12 234.72-3.88L234.72-3.88L234.72-3.88Q235.44-2.64 237.44-2.64L237.44-2.64L237.44-2.64Q239.44-2.64 241.52-4.80L241.52-4.80L241.52-4.80Q243.60-6.96 244.52-8.84L244.52-8.84L244.52-8.84Q245.44-10.72 246.08-12.48L246.08-12.48L247.76-21.68L247.76-22.24L247.76-22.24Q247.76-29.60 241.04-29.60L241.04-29.60L241.04-29.60Q238.48-29.60 236.24-22.64L236.24-22.64L236.24-22.64Q234-15.68 234-8.80L234-8.80zM233.44 13.12L233.44 13.12L233.44 13.12Q239.84 13.12 242.08 7.60L242.08 7.60L240.96 7.04L240.96 7.04Q240 6.56 239.80 6.44L239.80 6.44L239.80 6.44Q239.60 6.32 238.72 5.92L238.72 5.92L238.72 5.92Q237.84 5.52 237.44 5.40L237.44 5.40L237.44 5.40Q237.04 5.28 236.20 4.96L236.20 4.96L236.20 4.96Q235.36 4.64 234.80 4.52L234.80 4.52L234.80 4.52Q234.24 4.40 233.52 4.24L233.52 4.24L233.52 4.24Q232.32 4 230 4L230 4L230 4Q227.68 4 226.28 5.12L226.28 5.12L226.28 5.12Q224.88 6.24 224.88 8.40L224.88 8.40L224.88 8.40Q224.88 10.56 227.20 11.84L227.20 11.84L227.20 11.84Q229.52 13.12 233.44 13.12" fill="#bd2824" stroke="none" stroke-width="none" transform="translate(-132.60001182556152,20.12480155467987)" style="fill: rgb(23, 37, 40);"></path></g></g>
</g>
</g>
<style id="breath-4ffa28a3-a551-4c7a-85bb-f6929233a7c3" data-anikit="">@keyframes breath-4ffa28a3-a551-4c7a-85bb-f6929233a7c3
{
  0% {
    animation-timing-function: cubic-bezier(0.9647,0.2413,-0.0705,0.7911);
    transform: scale(0.9099999999999999);
  }
  51% {
    animation-timing-function: cubic-bezier(0.9226,0.2631,-0.0308,0.7628);
    transform: scale(1.02994);
  }
  100% {
    transform: scale(0.9099999999999999);
  }
}</style></svg>